<svg xmlns="http://www.w3.org/2000/svg" xmlns:xlink="http://www.w3.org/1999/xlink" zoomAndPan="magnify" preserveAspectRatio="xMidYMid meet" version="1.0" viewBox="92.73 117.48 1315.13 1265.49"><defs><clipPath id="f581e2eb23"><path d="M 92.730469 497 L 312 497 L 312 1383 L 92.730469 1383 Z M 92.730469 497 " clip-rule="nonzero"/></clipPath><clipPath id="fc18df8cb1"><path d="M 1188 497 L 1407.480469 497 L 1407.480469 1383 L 1188 1383 Z M 1188 497 " clip-rule="nonzero"/></clipPath><clipPath id="764a899522"><path d="M 92.730469 117 L 1407.480469 117 L 1407.480469 624 L 92.730469 624 Z M 92.730469 117 " clip-rule="nonzero"/></clipPath></defs><path fill="#00bc7d" d="M 531.101562 750.226562 L 531.101562 1256.414062 L 750.289062 1382.964844 L 969.492188 1256.414062 L 969.492188 750.226562 L 750.289062 876.808594 Z M 531.101562 750.226562 " fill-opacity="1" fill-rule="nonzero"/><g clip-path="url(#f581e2eb23)"><path fill="#00bc7d" d="M 92.730469 497.125 L 92.730469 1256.414062 L 311.917969 1382.964844 L 311.917969 623.675781 L 162.925781 537.660156 Z M 92.730469 497.125 " fill-opacity="1" fill-rule="nonzero"/></g><g clip-path="url(#fc18df8cb1)"><path fill="#00bc7d" d="M 1188.675781 1382.964844 L 1407.863281 1256.414062 L 1407.863281 497.125 L 1188.675781 623.675781 Z M 1188.675781 1382.964844 " fill-opacity="1" fill-rule="nonzero"/></g><g clip-path="url(#764a899522)"><path fill="#00bc7d" d="M 750.289062 623.675781 L 1407.863281 244.027344 L 1188.675781 117.476562 L 750.289062 370.578125 L 311.917969 117.476562 L 92.730469 244.027344 L 153.679688 279.226562 Z M 750.289062 623.675781 " fill-opacity="1" fill-rule="nonzero"/></g></svg>