<svg xmlns="http://www.w3.org/2000/svg" xmlns:xlink="http://www.w3.org/1999/xlink" zoomAndPan="magnify" preserveAspectRatio="xMidYMid meet" version="1.0" viewBox="209.68 87.95 1086.25 1292.88"><defs><g/><clipPath id="7a5b465d09"><path d="M 224.890625 391 L 401 391 L 401 1099 L 224.890625 1099 Z M 224.890625 391 " clip-rule="nonzero"/></clipPath><clipPath id="8d1cb0df7d"><path d="M 1100 391 L 1274.890625 391 L 1274.890625 1099 L 1100 1099 Z M 1100 391 " clip-rule="nonzero"/></clipPath><clipPath id="ddffd1fc64"><path d="M 224.890625 87 L 1274.890625 87 L 1274.890625 493 L 224.890625 493 Z M 224.890625 87 " clip-rule="nonzero"/></clipPath><clipPath id="0aa09c5372"><rect x="0" width="1120" y="0" height="180"/></clipPath></defs><path fill="#00bc7d" d="M 575.117188 593.464844 L 575.117188 997.871094 L 750.230469 1098.976562 L 925.355469 997.871094 L 925.355469 593.464844 L 750.230469 694.59375 Z M 575.117188 593.464844 " fill-opacity="1" fill-rule="nonzero"/><g clip-path="url(#7a5b465d09)"><path fill="#00bc7d" d="M 224.890625 391.257812 L 224.890625 997.871094 L 400.003906 1098.976562 L 400.003906 492.363281 L 280.972656 423.640625 Z M 224.890625 391.257812 " fill-opacity="1" fill-rule="nonzero"/></g><g clip-path="url(#8d1cb0df7d)"><path fill="#00bc7d" d="M 1100.46875 1098.976562 L 1275.582031 997.871094 L 1275.582031 391.257812 L 1100.46875 492.363281 Z M 1100.46875 1098.976562 " fill-opacity="1" fill-rule="nonzero"/></g><g clip-path="url(#ddffd1fc64)"><path fill="#00bc7d" d="M 750.230469 492.363281 L 1275.582031 189.046875 L 1100.46875 87.945312 L 750.230469 290.152344 L 400.003906 87.945312 L 224.890625 189.046875 L 273.582031 217.167969 Z M 750.230469 492.363281 " fill-opacity="1" fill-rule="nonzero"/></g><g transform="matrix(1, 0, 0, 1, 197, 1242)"><g clip-path="url(#0aa09c5372)"><g fill="#00bc7d" fill-opacity="1"><g transform="translate(2.426722, 137.492269)"><g><path d="M 56.265625 -6.65625 L 19.8125 -81.265625 L 19.8125 0 L 10.25 0 L 10.25 -93.109375 L 24.609375 -93.109375 L 56.40625 -27 L 88.0625 -93.109375 L 102.421875 -93.109375 L 102.421875 0 L 92.71875 0 L 92.71875 -81.40625 Z M 56.265625 -6.65625 "/></g></g></g><g fill="#00bc7d" fill-opacity="1"><g transform="translate(129.578226, 137.492269)"><g><path d="M 0.53125 0 L 39.234375 -93.109375 L 51.609375 -93.109375 L 89.78125 0 L 78.609375 0 L 66.90625 -29.265625 L 23.015625 -29.265625 L 11.171875 0 Z M 26.609375 -38.046875 L 63.3125 -38.046875 L 45.09375 -83.53125 Z M 26.609375 -38.046875 "/></g></g></g><g fill="#00bc7d" fill-opacity="1"><g transform="translate(234.385584, 137.492269)"><g><path d="M 10.25 0 L 10.25 -93.109375 L 50.140625 -93.109375 C 59.191406 -93.109375 66.507812 -90.644531 72.09375 -85.71875 C 77.675781 -80.800781 80.46875 -74.351562 80.46875 -66.375 C 80.46875 -60.257812 78.671875 -54.984375 75.078125 -50.546875 C 71.492188 -46.109375 66.6875 -43.050781 60.65625 -41.375 L 81.53125 0 L 70.234375 0 L 50.28125 -40.03125 L 20.484375 -40.03125 L 20.484375 0 Z M 49.484375 -83.9375 L 20.484375 -83.9375 L 20.484375 -48.6875 L 49.484375 -48.6875 C 55.691406 -48.6875 60.703125 -50.300781 64.515625 -53.53125 C 68.328125 -56.769531 70.234375 -61.050781 70.234375 -66.375 C 70.234375 -71.695312 68.328125 -75.953125 64.515625 -79.140625 C 60.703125 -82.335938 55.691406 -83.9375 49.484375 -83.9375 Z M 49.484375 -83.9375 "/></g></g></g><g fill="#00bc7d" fill-opacity="1"><g transform="translate(334.67099, 137.492269)"><g><path d="M 10.25 0 L 10.25 -93.109375 L 20.484375 -93.109375 L 20.484375 -48.953125 L 68.640625 -93.109375 L 82.078125 -93.109375 L 31.53125 -47.484375 L 83.140625 0 L 68.765625 0 L 20.484375 -44.6875 L 20.484375 0 Z M 10.25 0 "/></g></g></g><g fill="#00bc7d" fill-opacity="1"><g transform="translate(431.232332, 137.492269)"><g><path d="M 10.25 0 L 10.25 -93.109375 L 76.890625 -93.109375 L 76.890625 -84.0625 L 20.484375 -84.0625 L 20.484375 -51.484375 L 57.328125 -51.484375 L 57.328125 -42.5625 L 20.484375 -42.5625 L 20.484375 -9.046875 L 77.421875 -9.046875 L 77.421875 0 Z M 10.25 0 "/></g></g></g><g fill="#00bc7d" fill-opacity="1"><g transform="translate(527.660669, 137.492269)"><g><path d="M 2.265625 -83.9375 L 2.265625 -93.109375 L 79.8125 -93.109375 L 79.8125 -83.9375 L 46.15625 -83.9375 L 46.15625 0 L 35.921875 0 L 35.921875 -83.9375 Z M 2.265625 -83.9375 "/></g></g></g><g fill="#00bc7d" fill-opacity="1"><g transform="translate(625.552091, 137.492269)"><g><path d="M 1.46875 -15.96875 L 8.25 -23.015625 C 13.039062 -17.960938 18.160156 -14.125 23.609375 -11.5 C 29.066406 -8.882812 34.804688 -7.578125 40.828125 -7.578125 C 48.109375 -7.578125 54.097656 -9.304688 58.796875 -12.765625 C 63.492188 -16.222656 65.84375 -20.613281 65.84375 -25.9375 C 65.84375 -30.726562 64.175781 -34.40625 60.84375 -36.96875 C 57.519531 -39.539062 52.046875 -41.453125 44.421875 -42.703125 L 31 -44.828125 C 22.039062 -46.242188 15.429688 -48.878906 11.171875 -52.734375 C 6.910156 -56.597656 4.78125 -61.8125 4.78125 -68.375 C 4.78125 -76.082031 7.796875 -82.332031 13.828125 -87.125 C 19.859375 -91.914062 27.753906 -94.3125 37.515625 -94.3125 C 43.984375 -94.3125 50.410156 -93.242188 56.796875 -91.109375 C 63.179688 -88.984375 68.988281 -85.925781 74.21875 -81.9375 L 68.375 -73.953125 C 63.3125 -77.765625 58.164062 -80.644531 52.9375 -82.59375 C 47.707031 -84.550781 42.429688 -85.53125 37.109375 -85.53125 C 30.460938 -85.53125 25.078125 -84 20.953125 -80.9375 C 16.828125 -77.875 14.765625 -73.953125 14.765625 -69.171875 C 14.765625 -64.828125 16.226562 -61.5 19.15625 -59.1875 C 22.082031 -56.882812 26.914062 -55.203125 33.65625 -54.140625 L 46.953125 -52.015625 C 57.066406 -50.328125 64.445312 -47.441406 69.09375 -43.359375 C 73.75 -39.285156 76.078125 -33.65625 76.078125 -26.46875 C 76.078125 -22.382812 75.210938 -18.632812 73.484375 -15.21875 C 71.753906 -11.8125 69.316406 -8.890625 66.171875 -6.453125 C 63.023438 -4.015625 59.253906 -2.109375 54.859375 -0.734375 C 50.472656 0.640625 45.664062 1.328125 40.4375 1.328125 C 33.070312 1.328125 26 -0.15625 19.21875 -3.125 C 12.4375 -6.09375 6.519531 -10.375 1.46875 -15.96875 Z M 1.46875 -15.96875 "/></g></g></g><g fill="#00bc7d" fill-opacity="1"><g transform="translate(719.852459, 137.492269)"><g><path d="M 10.25 0 L 10.25 -93.109375 L 76.890625 -93.109375 L 76.890625 -84.0625 L 20.484375 -84.0625 L 20.484375 -51.484375 L 57.328125 -51.484375 L 57.328125 -42.5625 L 20.484375 -42.5625 L 20.484375 -9.046875 L 77.421875 -9.046875 L 77.421875 0 Z M 10.25 0 "/></g></g></g><g fill="#00bc7d" fill-opacity="1"><g transform="translate(816.280796, 137.492269)"><g><path d="M 10.25 -93.109375 L 20.484375 -93.109375 L 76.484375 -17.5625 L 76.484375 -93.109375 L 86.1875 -93.109375 L 86.1875 0 L 77.15625 0 L 19.953125 -77.546875 L 19.953125 0 L 10.25 0 Z M 10.25 -93.109375 "/></g></g></g><g fill="#00bc7d" fill-opacity="1"><g transform="translate(927.206202, 137.492269)"><g><path d="M 1.46875 -15.96875 L 8.25 -23.015625 C 13.039062 -17.960938 18.160156 -14.125 23.609375 -11.5 C 29.066406 -8.882812 34.804688 -7.578125 40.828125 -7.578125 C 48.109375 -7.578125 54.097656 -9.304688 58.796875 -12.765625 C 63.492188 -16.222656 65.84375 -20.613281 65.84375 -25.9375 C 65.84375 -30.726562 64.175781 -34.40625 60.84375 -36.96875 C 57.519531 -39.539062 52.046875 -41.453125 44.421875 -42.703125 L 31 -44.828125 C 22.039062 -46.242188 15.429688 -48.878906 11.171875 -52.734375 C 6.910156 -56.597656 4.78125 -61.8125 4.78125 -68.375 C 4.78125 -76.082031 7.796875 -82.332031 13.828125 -87.125 C 19.859375 -91.914062 27.753906 -94.3125 37.515625 -94.3125 C 43.984375 -94.3125 50.410156 -93.242188 56.796875 -91.109375 C 63.179688 -88.984375 68.988281 -85.925781 74.21875 -81.9375 L 68.375 -73.953125 C 63.3125 -77.765625 58.164062 -80.644531 52.9375 -82.59375 C 47.707031 -84.550781 42.429688 -85.53125 37.109375 -85.53125 C 30.460938 -85.53125 25.078125 -84 20.953125 -80.9375 C 16.828125 -77.875 14.765625 -73.953125 14.765625 -69.171875 C 14.765625 -64.828125 16.226562 -61.5 19.15625 -59.1875 C 22.082031 -56.882812 26.914062 -55.203125 33.65625 -54.140625 L 46.953125 -52.015625 C 57.066406 -50.328125 64.445312 -47.441406 69.09375 -43.359375 C 73.75 -39.285156 76.078125 -33.65625 76.078125 -26.46875 C 76.078125 -22.382812 75.210938 -18.632812 73.484375 -15.21875 C 71.753906 -11.8125 69.316406 -8.890625 66.171875 -6.453125 C 63.023438 -4.015625 59.253906 -2.109375 54.859375 -0.734375 C 50.472656 0.640625 45.664062 1.328125 40.4375 1.328125 C 33.070312 1.328125 26 -0.15625 19.21875 -3.125 C 12.4375 -6.09375 6.519531 -10.375 1.46875 -15.96875 Z M 1.46875 -15.96875 "/></g></g></g><g fill="#00bc7d" fill-opacity="1"><g transform="translate(1021.50657, 137.492269)"><g><path d="M 10.25 0 L 10.25 -93.109375 L 76.890625 -93.109375 L 76.890625 -84.0625 L 20.484375 -84.0625 L 20.484375 -51.484375 L 57.328125 -51.484375 L 57.328125 -42.5625 L 20.484375 -42.5625 L 20.484375 -9.046875 L 77.421875 -9.046875 L 77.421875 0 Z M 10.25 0 "/></g></g></g></g></g></svg>